HIERARCHY
ROOT Hips
{
	OFFSET -3.958830 18.904000 13.208200
	CHANNELS 6 Xposition Yposition Zposition Zrotation Yrotation Xrotation 
	JOINT LHipJoint
	{
		OFFSET 0.000000 0.000000 0.000000
		CHANNELS 3 Zrotation Yrotation Xrotation
		JOINT LeftUpLeg
		{
			OFFSET 1.800000 -1.400000 0.085000
			CHANNELS 3 Zrotation Yrotation Xrotation
			JOINT LeftLeg
			{
				OFFSET 2.215000 -6.000000 0.000000
				CHANNELS 3 Zrotation Yrotation Xrotation
				JOINT LeftFoot
				{
					OFFSET 2.500000 -6.900000 0.000000
					CHANNELS 3 Zrotation Yrotation Xrotation
					JOINT LeftToeBase
					{
						OFFSET 0.200000 -0.500000 1.950000
						CHANNELS 3 Zrotation Yrotation Xrotation
						End Site
						{
							OFFSET 0.000000 0.000000 0.000000
						}
					}
				}
			}
		}
	}
	JOINT RHipJoint
	{
		OFFSET 0.000000 0.000000 0.000000
		CHANNELS 3 Zrotation Yrotation Xrotation
		JOINT RightUpLeg
		{
			OFFSET -1.800000 -1.400000 0.085000
			CHANNELS 3 Zrotation Yrotation Xrotation
			JOINT RightLeg
			{
				OFFSET -2.215000 -6.000000 0.000000
				CHANNELS 3 Zrotation Yrotation Xrotation
				JOINT RightFoot
				{
					OFFSET -2.500000 -6.900000 0.000000
					CHANNELS 3 Zrotation Yrotation Xrotation
					JOINT RightToeBase
					{
						OFFSET -0.200000 -0.500000 1.950000
						CHANNELS 3 Zrotation Yrotation Xrotation
						End Site
						{
							OFFSET 0.000000 0.000000 0.000000
						}
					}
				}
			}
		}
	}
	JOINT LowerBack
	{
		OFFSET 0.000000 0.000000 0.000000
		CHANNELS 3 Zrotation Yrotation Xrotation
		JOINT Spine
		{
			OFFSET -0.087000 1.940000 -0.288900
			CHANNELS 3 Zrotation Yrotation Xrotation
			JOINT Spine1
			{
				OFFSET 0.000000 1.950000 0.060000
				CHANNELS 3 Zrotation Yrotation Xrotation
				JOINT Neck
				{
					OFFSET 0.000000 0.000000 0.000000
					CHANNELS 3 Zrotation Yrotation Xrotation
					JOINT Neck1
					{
						OFFSET 0.000000 1.600000 0.340000
						CHANNELS 3 Zrotation Yrotation Xrotation
						JOINT Head
						{
							OFFSET 0.000000 1.667000 -0.240000
							CHANNELS 3 Zrotation Yrotation Xrotation
							End Site
							{
								OFFSET 0.000000 0.000000 0.000000
							}
						}
					}
				}
				JOINT LeftShoulder
				{
					OFFSET 0.000000 0.000000 0.000000
					CHANNELS 3 Zrotation Yrotation Xrotation
					JOINT LeftArm
					{
						OFFSET 2.700000 1.550000 -0.730000
						CHANNELS 3 Zrotation Yrotation Xrotation
						JOINT LeftForeArm
						{
							OFFSET 5.450000 0.000000 0.000000
							CHANNELS 3 Zrotation Yrotation Xrotation
							JOINT LeftHand
							{
								OFFSET 3.450000 0.000000 0.000000
								CHANNELS 3 Zrotation Yrotation Xrotation
								JOINT LeftHandIndex1
								{
									OFFSET 0.750000 0.000000 0.000000
									CHANNELS 3 Zrotation Yrotation Xrotation
									End Site
									{
										OFFSET 0.000000 0.000000 0.000000
									}
								}
							}
						}
					}
				}
				JOINT RightShoulder
				{
					OFFSET 0.000000 0.000000 0.000000
					CHANNELS 3 Zrotation Yrotation Xrotation
					JOINT RightArm
					{
						OFFSET -2.700000 1.550000 -0.730000
						CHANNELS 3 Zrotation Yrotation Xrotation
						JOINT RightForeArm
						{
							OFFSET -5.450000 0.000000 0.000000
							CHANNELS 3 Zrotation Yrotation Xrotation
							JOINT RightHand
							{
								OFFSET -3.450000 0.000000 0.000000
								CHANNELS 3 Zrotation Yrotation Xrotation
								JOINT RightHandIndex1
								{
									OFFSET -0.750000 0.000000 0.000000
									CHANNELS 3 Zrotation Yrotation Xrotation
									End Site
									{
										OFFSET 0.000000 0.000000 0.000000
									}
								}
							}
						}
					}
				}
			}
		}
	}
}
MOTION
Frames: 10
Frame Time: 0.016667
0.498920 16.484880 -13.775330 171.274227 43.895400 173.071014 -15.311473 11.129121 4.897421 21.684717 -7.482250 -18.836633 -28.190366 6.628022 4.818782 0.415267 6.097506 2.255594 0.122310 0.055880 0.241920 18.183775 -11.062171 2.044610 -4.473643 -0.906025 -10.657095 1.605271 -4.377153 12.875922 -0.164094 -3.055427 3.290377 0.010020 -0.087610 0.055690 -3.422289 1.010388 -7.663002 2.163616 15.894142 9.753467 1.201063 16.846011 -2.019628 2.899351 -3.722128 -9.418563 -5.419880 5.414470 24.781446 -3.157560 8.387280 -15.546390 -28.238040 -5.909578 -1.387132 -50.996565 3.125334 -10.133213 -12.521751 -9.220307 -0.821230 -3.764696 2.836750 0.288230 -0.072720 0.136450 -0.031810 23.487910 15.347023 11.075004 53.300430 1.266600 -1.084964 7.261060 11.751496 0.306671 2.577101 -1.212981 -0.080030 0.044390 -0.045050 -0.151920 
0.495690 16.483300 -13.765470 171.180392 43.653562 173.082313 -15.322593 11.099867 4.940312 21.997133 -7.555806 -18.990822 -28.425456 6.599079 4.673515 0.422024 6.131968 2.238573 0.128190 0.061530 0.253620 18.178335 -11.025087 2.039877 -4.646109 -0.887361 -10.602658 1.803100 -4.378389 12.577736 -0.169989 -3.047916 3.290670 0.011110 -0.097550 0.058720 -3.392360 0.976853 -7.698861 1.987308 15.755243 9.887840 0.954353 16.715440 -2.243580 3.011437 -3.434113 -9.430670 -4.931961 5.333747 24.825638 -3.319780 8.529180 -15.942330 -28.687488 -6.101436 -1.378754 -50.309752 3.214722 -9.980018 -12.333402 -9.073593 -0.819254 -3.758493 2.834377 0.294730 -0.076770 0.145310 -0.034530 23.690427 15.311699 11.025778 53.224763 1.294540 -1.097121 7.318879 11.902178 0.314666 2.576189 -1.211439 -0.077670 0.040870 -0.049920 -0.156760 
0.489950 16.481790 -13.749050 171.141340 43.309457 173.092079 -15.334075 11.065121 5.016970 22.345864 -7.682124 -19.216191 -28.792970 6.475055 4.301811 0.430331 6.166861 2.222043 0.133760 0.067440 0.264960 18.172820 -10.988840 2.016299 -4.705801 -0.892467 -10.689323 1.852255 -4.406893 12.736148 -0.172968 -3.038356 3.291284 0.013800 -0.109820 0.055440 -3.351924 0.925772 -7.751918 1.923858 15.537890 10.181298 0.763739 16.537642 -2.453331 3.098535 -3.231853 -9.430008 -4.633875 5.033868 25.038076 -3.509260 8.403570 -16.323620 -29.101342 -6.227119 -1.404791 -49.923262 3.246116 -9.881889 -11.977695 -8.992126 -0.817411 -3.747498 2.825106 0.303340 -0.084980 0.154340 -0.036910 23.886883 15.282341 10.988050 52.976641 1.307128 -1.136868 7.389662 12.133867 0.326668 2.575684 -1.206421 -0.078450 0.042370 -0.055810 -0.161400 
0.487120 16.481090 -13.739370 170.980484 43.126796 173.048715 -15.357866 10.975703 5.135091 22.923253 -7.872753 -19.122910 -29.789446 6.308206 3.594674 0.467399 6.298750 2.176231 0.142300 0.078560 0.271030 18.165726 -10.919878 1.975896 -4.825678 -0.886956 -10.720077 1.908065 -4.407073 12.706063 -0.177952 -3.027650 3.294265 0.019610 -0.113820 0.056680 -3.311256 0.889978 -7.812367 1.702919 15.447151 10.323249 0.698164 16.451644 -2.682674 3.124389 -3.023225 -9.321268 -4.307932 4.883828 25.158330 -3.355010 8.279980 -16.721450 -29.682051 -6.169782 -1.545935 -49.410045 3.222236 -9.683270 -11.642407 -8.706386 -0.827658 -3.744321 2.817240 0.308870 -0.088790 0.161840 -0.034910 24.381914 15.046338 10.917318 52.443591 1.144084 -1.187467 7.463053 12.297210 0.334917 2.569816 -1.203003 -0.076550 0.046650 -0.059760 -0.161790 
0.483930 16.484100 -13.741510 170.880084 42.962976 173.124903 -15.365231 10.924296 5.167250 23.057705 -7.883548 -19.086129 -30.186384 6.218036 3.220226 0.466290 6.357226 2.156677 0.159170 0.098960 0.274330 18.169582 -10.886572 1.949377 -5.164903 -0.885481 -10.805554 2.264328 -4.474227 12.637606 -0.178798 -3.059241 3.274988 0.041740 -0.105160 0.066650 -3.331557 0.892918 -7.792001 1.600675 15.310087 10.129830 0.800964 16.276689 -2.742132 3.032457 -2.943387 -8.849286 -4.056503 4.741120 24.282539 -3.351490 8.061510 -16.975460 -30.367263 -5.385506 -1.949435 -48.793619 3.340229 -9.597181 -11.565119 -8.876976 -0.829684 -3.757660 2.827524 0.298170 -0.076260 0.154380 -0.030280 25.130523 14.060352 10.592393 51.546842 0.703267 -1.493307 7.553380 13.250402 0.300825 2.543654 -1.225498 -0.074900 0.047260 -0.059790 -0.160460 
0.479390 16.480800 -13.733880 170.864346 43.014643 173.298087 -15.376660 10.848651 5.243601 23.594025 -7.941517 -19.003430 -30.752426 6.106295 2.692191 0.480766 6.451073 2.123125 0.167450 0.106480 0.281510 18.170781 -10.833177 1.933700 -5.329395 -0.840759 -10.996620 2.709881 -4.536767 12.523320 -0.179965 -3.056805 3.271160 0.050490 -0.106210 0.067070 -3.342104 0.897600 -7.825653 1.648611 15.204799 10.092853 0.628650 16.184017 -2.964325 3.027713 -2.889626 -8.606677 -3.942987 4.627089 24.048739 -3.290390 7.915140 -17.365750 -30.900356 -4.969126 -2.232092 -48.400625 3.266102 -9.377759 -10.924491 -8.538590 -0.851541 -3.762709 2.817236 0.301960 -0.077470 0.155260 -0.030800 25.581641 13.518983 10.425267 51.324621 0.431839 -1.765996 7.165607 14.087036 0.272001 2.528524 -1.227464 -0.077350 0.052570 -0.059990 -0.163640 
0.484150 16.478560 -13.720740 170.813807 43.130733 173.424988 -15.393390 10.770352 5.316851 24.207441 -7.950854 -18.902662 -31.280394 6.008127 2.150651 0.493143 6.556006 2.086778 0.173260 0.115440 0.277690 18.173440 -10.779556 1.904984 -5.246191 -0.783064 -11.095704 2.671703 -4.499670 12.532678 -0.177250 -3.048726 3.270539 0.063400 -0.094710 0.068840 -3.351241 0.902054 -7.835177 1.445285 15.117356 9.897057 0.664418 16.060310 -2.941059 2.931723 -2.901319 -8.393559 -3.902084 4.745691 23.572880 -2.956980 7.831650 -17.560650 -31.187626 -4.712195 -2.336203 -48.124975 3.281032 -9.264824 -10.605666 -8.560523 -0.860131 -3.772424 2.817016 0.298540 -0.070810 0.148890 -0.027880 26.027604 13.193173 10.223024 50.974894 0.550211 -1.732861 6.521061 14.039447 0.213461 2.518928 -1.231268 -0.081410 0.061430 -0.055140 -0.161780 
0.487700 16.475640 -13.702560 170.622390 43.306675 173.372728 -15.415747 10.697363 5.394392 24.649990 -8.000647 -18.396061 -31.740103 5.677895 1.086600 0.516551 6.618263 2.065826 0.186490 0.134670 0.287320 18.166876 -10.718420 1.872720 -5.222200 -0.753695 -11.156025 2.706393 -4.489300 12.547305 -0.183330 -3.034940 3.273084 0.074890 -0.101890 0.068020 -3.323156 0.879887 -7.859664 1.031586 15.076051 9.895823 0.792611 15.989241 -2.947424 2.893228 -2.763588 -8.194402 -3.676730 5.011611 23.629070 -2.833300 8.114520 -18.035210 -31.347612 -4.436289 -2.406904 -47.821136 3.370340 -9.297184 -10.590057 -8.950624 -0.837477 -3.763774 2.816189 0.304120 -0.075010 0.157560 -0.026330 26.247692 12.808257 9.972365 50.745668 0.844910 -1.772342 6.340149 14.502417 0.201054 2.511583 -1.231788 -0.079890 0.064740 -0.061780 -0.164490 
0.479440 16.470310 -13.692330 170.664498 43.132441 173.464789 -15.430181 10.628766 5.482795 25.133194 -8.071624 -18.240318 -32.361158 5.512204 0.483928 0.547111 6.712910 2.033127 0.184910 0.136430 0.286530 18.166506 -10.659901 1.849762 -5.257660 -0.732320 -11.253948 2.927304 -4.527706 12.535991 -0.182980 -3.030880 3.273795 0.074880 -0.102870 0.070720 -3.312813 0.850213 -7.906601 1.199072 14.889909 9.963080 0.867164 15.815818 -2.932509 2.887871 -2.812597 -8.055531 -3.798985 4.963399 23.777070 -3.155280 8.123790 -18.064420 -31.428455 -4.108919 -2.509954 -47.814155 3.382975 -9.328387 -10.668144 -9.336389 -0.808330 -3.765959 2.814025 0.300980 -0.072370 0.160040 -0.028220 26.291160 12.457228 9.852263 50.409165 0.733757 -1.980163 6.137222 15.208847 0.191782 2.503818 -1.231345 -0.076510 0.065450 -0.059360 -0.163460 
0.477130 16.466640 -13.684200 170.664840 43.320223 173.650510 -15.446860 10.529998 5.589219 25.790605 -8.180910 -18.027370 -33.003312 5.275091 -0.305565 0.576903 6.817491 1.999140 0.192880 0.145420 0.291090 18.167381 -10.596507 1.829318 -5.213055 -0.676236 -11.438274 3.136101 -4.535096 12.465505 -0.183269 -3.015607 3.276554 0.081930 -0.102200 0.072070 -3.320474 0.864419 -7.956211 1.265067 14.870376 9.948371 0.690666 15.814708 -3.199110 2.888977 -2.836914 -7.928524 -3.806786 5.090507 23.532435 -3.042980 8.182650 -18.314310 -31.958155 -3.858169 -2.661438 -47.226309 3.653874 -9.317751 -10.475515 -9.558263 -0.797387 -3.761145 2.814957 0.301880 -0.072650 0.161450 -0.025510 26.773964 12.184214 9.770680 49.993391 0.585802 -2.049457 6.331860 15.532428 0.202992 2.496480 -1.237067 -0.076390 0.067980 -0.062450 -0.163500 
